<?xml version="1.0" encoding="UTF-8"?>
<svg xmlns="http://www.w3.org/2000/svg" xmlns:xlink="http://www.w3.org/1999/xlink" xml:space="preserve" width="256" height="256" version="1.1" viewBox="-200 -50 2620 2720">
 <defs>
  <style type="text/css">
   <![CDATA[
    .fil2 {fill:#D8C9B4}
    .fil1 {fill:url(#mark0)}
    .fil0 {fill:url(#mark1)}
    .fil3 {fill:url(#mark2)}
    .fil4 {fill:url(#mark3)}
   ]]>
  </style>
  <linearGradient id="mark0" gradientUnits="userSpaceOnUse" x1="1292.19" y1="241.81" x2="2393.61" y2="1603.73">
   <stop offset="0" style="stop-opacity:1; stop-color:#39434C"/>
   <stop offset="0.439216" style="stop-opacity:1; stop-color:#3E474E"/>
   <stop offset="1" style="stop-opacity:1; stop-color:#262A33"/>
  </linearGradient>
  <linearGradient id="mark1" gradientUnits="userSpaceOnUse" x1="5.08" y1="2190.9" x2="690.88" y2="994.61">
   <stop offset="0" style="stop-opacity:1; stop-color:#3E474E"/>
   <stop offset="0.380392" style="stop-opacity:1; stop-color:#39434C"/>
   <stop offset="1" style="stop-opacity:1; stop-color:#262A33"/>
  </linearGradient>
  <linearGradient id="mark2" gradientUnits="userSpaceOnUse" x1="1204.74" y1="792.42" x2="755.39" y2="1137.37">
   <stop offset="0" style="stop-opacity:1; stop-color:#8E8179"/>
   <stop offset="1" style="stop-opacity:1; stop-color:#D8C9B4"/>
  </linearGradient>
  <linearGradient id="mark3" gradientUnits="userSpaceOnUse" xlink:href="#mark2" xmlns:xlink="http://www.w3.org/1999/xlink" x1="1136.38" y1="2007.18" x2="802.27" y2="1604.68"/>
 </defs>
 <polygon class="fil0" points="0.01,745.54 5.08,2190.9 751.5,2610.76 755.39,1137.37 "/>
 <polygon class="fil1" points="2210.47,1810.31 2209.73,402.18 1464.02,-0.01 1460.03,1402.32 "/>
 <polygon class="fil2" points="0.01,745.54 0.01,159.7 202.58,28.17 767.59,327.12 767.22,351.93 755.39,1137.37 "/>
 <polygon class="fil2" points="1460.03,1402.32 1444.52,2211.18 2002.41,2520.28 2213.51,2373.26 2210.47,1810.31 "/>
 <polygon class="fil3" points="767.4,339.53 1460.03,1402.32 755.39,1137.37 "/>
 <polygon class="fil4" points="1448.01,2200.18 755.39,1137.37 1460.03,1402.32 "/>
</svg>
